<?xml version="1.0" encoding="utf-8"?>
<!-- Generator: Adobe Illustrator 16.0.0, SVG Export Plug-In . SVG Version: 6.00 Build 0)  -->
<!DOCTYPE svg PUBLIC "-//W3C//DTD SVG 1.1//EN" "http://www.w3.org/Graphics/SVG/1.1/DTD/svg11.dtd">
<svg version="1.1" id="Layer_1" xmlns="http://www.w3.org/2000/svg" xmlns:xlink="http://www.w3.org/1999/xlink" x="0px" y="0px"
	 width="96px" height="96px" viewBox="0 0 96 96" enable-background="new 0 0 96 96" xml:space="preserve">
<g>
	<g>
		<path fill="#02AE74" d="M80.051,16.607C62.344-1.095,33.641-1.09,15.939,16.616c-17.701,17.707-17.697,46.41,0.01,64.111
			c17.707,17.701,46.41,17.697,64.11-0.009c8.501-8.505,13.275-20.037,13.273-32.061C93.331,36.635,88.553,25.106,80.051,16.607z
			 M71.322,66.483c-0.002,0-0.004,0.002-0.007,0.004v-0.014l-2.296,2.282c-2.971,3.008-7.297,4.245-11.409,3.262
			c-4.144-1.107-8.081-2.874-11.666-5.228c-3.33-2.128-6.416-4.616-9.203-7.42c-2.563-2.545-4.866-5.337-6.875-8.341
			c-2.197-3.23-3.936-6.749-5.167-10.457c-1.412-4.355-0.243-9.135,3.021-12.346l2.69-2.69c0.747-0.75,1.962-0.753,2.713-0.005
			c0.002,0.002,0.004,0.004,0.007,0.005l8.492,8.493c0.751,0.747,0.753,1.963,0.005,2.714c-0.001,0.001-0.003,0.003-0.005,0.006
			l-4.987,4.986c-1.43,1.416-1.611,3.665-0.423,5.289c1.804,2.476,3.8,4.805,5.97,6.967c2.417,2.429,5.048,4.638,7.857,6.602
			c1.623,1.133,3.824,0.942,5.229-0.451l4.819-4.897c0.748-0.751,1.963-0.754,2.715-0.005c0.002,0,0.004,0.003,0.005,0.005
			l8.508,8.522C72.067,64.517,72.069,65.731,71.322,66.483z"/>
	</g>
</g>
</svg>
