<?xml version="1.0" encoding="utf-8"?>
<!-- Generator: Adobe Illustrator 16.0.0, SVG Export Plug-In . SVG Version: 6.00 Build 0)  -->
<!DOCTYPE svg PUBLIC "-//W3C//DTD SVG 1.1//EN" "http://www.w3.org/Graphics/SVG/1.1/DTD/svg11.dtd">
<svg version="1.1" id="Layer_1" xmlns="http://www.w3.org/2000/svg" xmlns:xlink="http://www.w3.org/1999/xlink" x="0px" y="0px"
	 width="96px" height="96px" viewBox="0 0 96 96" enable-background="new 0 0 96 96" xml:space="preserve">
<ellipse fill="#02AE74" cx="48" cy="47.5" rx="45.667" ry="44.937"/>
<path fill="#FFFFFF" d="M47.92,21C33.353,21,21.5,32.852,21.5,47.42C21.5,61.988,33.353,74,47.92,74
	c4.043,0,8.031-0.926,11.636-2.694C61.681,73.033,64.356,74,67.135,74h7.285l-2.184-3.637c-1.4-2.335-2.41-4.974-2.64-7.68
	C72.702,58.24,74.5,52.877,74.5,47.42C74.5,32.852,62.488,21,47.92,21z M40.715,49.821h-4.804v-4.803h4.804V49.821z M50.322,49.821
	h-4.804v-4.803h4.804V49.821z M59.93,49.821h-4.804v-4.803h4.804V49.821z"/>
</svg>
