<?xml version="1.0" encoding="utf-8"?>
<!-- Generator: Adobe Illustrator 16.0.0, SVG Export Plug-In . SVG Version: 6.00 Build 0)  -->
<!DOCTYPE svg PUBLIC "-//W3C//DTD SVG 1.1//EN" "http://www.w3.org/Graphics/SVG/1.1/DTD/svg11.dtd">
<svg version="1.1" xmlns="http://www.w3.org/2000/svg" xmlns:xlink="http://www.w3.org/1999/xlink" x="0px" y="0px" width="96px"
	 height="96px" viewBox="0 0 96 96" enable-background="new 0 0 96 96" xml:space="preserve">
<g id="Layer_1">
	<ellipse fill="#02AE74" cx="48" cy="47.5" rx="45.667" ry="44.937"/>
	<path display="none" fill="#FFFFFF" d="M47.92,21C33.353,21,21.5,32.852,21.5,47.42C21.5,61.988,33.353,74,47.92,74
		c4.043,0,8.031-0.926,11.636-2.694C61.681,73.033,64.356,74,67.135,74h7.285l-2.184-3.637c-1.4-2.335-2.41-4.974-2.64-7.68
		C72.702,58.24,74.5,52.877,74.5,47.42C74.5,32.852,62.488,21,47.92,21z M40.715,49.821h-4.804v-4.803h4.804V49.821z M50.322,49.821
		h-4.804v-4.803h4.804V49.821z M59.93,49.821h-4.804v-4.803h4.804V49.821z"/>
</g>
<g id="Layer_2">
	<g>
		<g>
			<path fill="#FFFFFF" d="M69.842,26.629H26.158c-0.717,0-1.388,0.176-1.996,0.467L47.896,50.83l5.319-5.112l0.001-0.001v-0.001
				l18.621-18.62C71.23,26.806,70.559,26.629,69.842,26.629z"/>
		</g>
	</g>
	<g>
		<g>
			<path fill="#FFFFFF" d="M74.033,29.292L56.511,46.814l17.522,17.523c0.29-0.607,0.467-1.279,0.467-1.996V31.287
				C74.5,30.57,74.324,29.899,74.033,29.292z"/>
		</g>
	</g>
	<g>
		<g>
			<path fill="#FFFFFF" d="M21.967,29.291c-0.291,0.607-0.467,1.279-0.467,1.996v31.055c0,0.717,0.176,1.388,0.466,1.995
				L39.49,46.814L21.967,29.291z"/>
		</g>
	</g>
	<g>
		<g>
			<path fill="#FFFFFF" d="M54.314,49.011l-5.32,5.112c-0.303,0.304-0.7,0.455-1.098,0.455c-0.396,0-0.794-0.151-1.098-0.455
				l-5.113-5.113L24.162,66.533C24.77,66.823,25.441,67,26.158,67h43.684c0.717,0,1.389-0.177,1.996-0.467L54.314,49.011z"/>
		</g>
	</g>
</g>
</svg>
