<?xml version="1.0" encoding="utf-8"?>
<!-- Generator: Adobe Illustrator 16.0.0, SVG Export Plug-In . SVG Version: 6.00 Build 0)  -->
<!DOCTYPE svg PUBLIC "-//W3C//DTD SVG 1.1//EN" "http://www.w3.org/Graphics/SVG/1.1/DTD/svg11.dtd">
<svg version="1.1" xmlns="http://www.w3.org/2000/svg" xmlns:xlink="http://www.w3.org/1999/xlink" x="0px" y="0px" width="96px"
	 height="96px" viewBox="0 0 96 96" enable-background="new 0 0 96 96" xml:space="preserve">
<g id="Layer_1">
	<ellipse fill="#02AE74" cx="48" cy="47.5" rx="45.667" ry="44.937"/>
	<path display="none" fill="#FFFFFF" d="M47.92,21C33.353,21,21.5,32.852,21.5,47.42C21.5,61.988,33.353,74,47.92,74
		c4.043,0,8.031-0.926,11.636-2.694C61.681,73.033,64.356,74,67.135,74h7.285l-2.184-3.637c-1.4-2.335-2.41-4.974-2.64-7.68
		C72.702,58.24,74.5,52.877,74.5,47.42C74.5,32.852,62.488,21,47.92,21z M40.715,49.821h-4.804v-4.803h4.804V49.821z M50.322,49.821
		h-4.804v-4.803h4.804V49.821z M59.93,49.821h-4.804v-4.803h4.804V49.821z"/>
</g>
<g id="Layer_2" display="none">
	<g display="inline">
		<g>
			<path fill="#FFFFFF" d="M69.842,26.629H26.158c-0.717,0-1.388,0.176-1.996,0.467L47.896,50.83l5.319-5.112l0.001-0.001v-0.001
				l18.621-18.62C71.23,26.806,70.559,26.629,69.842,26.629z"/>
		</g>
	</g>
	<g display="inline">
		<g>
			<path fill="#FFFFFF" d="M74.033,29.292L56.511,46.814l17.522,17.523c0.29-0.607,0.467-1.279,0.467-1.996V31.287
				C74.5,30.57,74.324,29.899,74.033,29.292z"/>
		</g>
	</g>
	<g display="inline">
		<g>
			<path fill="#FFFFFF" d="M21.967,29.291c-0.291,0.607-0.467,1.279-0.467,1.996v31.055c0,0.717,0.176,1.388,0.466,1.995
				L39.49,46.814L21.967,29.291z"/>
		</g>
	</g>
	<g display="inline">
		<g>
			<path fill="#FFFFFF" d="M54.314,49.011l-5.32,5.112c-0.303,0.304-0.7,0.455-1.098,0.455c-0.396,0-0.794-0.151-1.098-0.455
				l-5.113-5.113L24.162,66.533C24.77,66.823,25.441,67,26.158,67h43.684c0.717,0,1.389-0.177,1.996-0.467L54.314,49.011z"/>
		</g>
	</g>
</g>
<g id="Layer_3">
	<path fill="#E5E5E5" d="M23.187,74.017c-0.304,0-0.599-0.12-0.817-0.341c-0.289-0.292-0.4-0.716-0.292-1.111l3.511-12.822
		c-2.186-3.953-3.339-8.425-3.337-12.965c0.006-14.763,12.02-26.772,26.782-26.772c7.159,0.003,13.887,2.792,18.943,7.853
		c5.056,5.061,7.839,11.787,7.837,18.941c-0.007,14.763-12.02,26.773-26.78,26.773h-0.012c-4.313-0.001-8.586-1.053-12.393-3.043
		l-13.152,3.45C23.381,74.004,23.284,74.017,23.187,74.017z"/>
	<path fill="#FFFFFF" d="M23.187,72.867l3.636-13.278c-2.243-3.887-3.423-8.294-3.421-12.811
		c0.005-14.129,11.503-25.624,25.632-25.624c6.855,0.003,13.291,2.671,18.13,7.515c4.839,4.844,7.504,11.282,7.501,18.13
		c-0.006,14.128-11.506,25.624-25.631,25.624c-0.002,0,0,0,0,0h-0.012c-4.289-0.001-8.505-1.077-12.248-3.119L23.187,72.867z
		 M37.404,64.666l0.778,0.461c3.27,1.94,7.019,2.967,10.843,2.969h0.009c11.741,0,21.298-9.555,21.303-21.299
		c0.002-5.691-2.212-11.043-6.233-15.068c-4.022-4.025-9.371-6.244-15.063-6.247c-11.751,0-21.307,9.554-21.312,21.297
		c-0.002,4.024,1.124,7.943,3.257,11.335l0.507,0.806l-2.153,7.859L37.404,64.666z"/>
	<path fill="#64B161" d="M24.078,71.974l3.51-12.82c-2.166-3.752-3.304-8.008-3.303-12.367c0.005-13.64,11.105-24.736,24.744-24.736
		c6.62,0.003,12.833,2.579,17.503,7.255c4.673,4.676,7.243,10.891,7.241,17.501C73.768,60.446,62.667,71.543,49.03,71.543
		c-0.001,0,0.001,0,0,0H49.02c-4.142-0.001-8.21-1.04-11.824-3.01L24.078,71.974z"/>
	<g>
		<path fill="#FFFFFF" d="M23.187,72.867l3.636-13.278c-2.243-3.887-3.423-8.294-3.421-12.811
			c0.005-14.129,11.503-25.624,25.632-25.624c6.855,0.003,13.291,2.671,18.13,7.515c4.839,4.844,7.504,11.282,7.501,18.13
			c-0.006,14.128-11.506,25.624-25.631,25.624c-0.002,0,0,0,0,0h-0.012c-4.289-0.001-8.505-1.077-12.248-3.119L23.187,72.867z
			 M37.404,64.666l0.778,0.461c3.27,1.94,7.019,2.967,10.843,2.969h0.009c11.741,0,21.298-9.555,21.303-21.299
			c0.002-5.691-2.212-11.043-6.233-15.068c-4.022-4.025-9.371-6.244-15.063-6.247c-11.751,0-21.307,9.554-21.312,21.297
			c-0.002,4.024,1.124,7.943,3.257,11.335l0.507,0.806l-2.153,7.859L37.404,64.666z"/>
		<path fill="#FFFFFF" d="M42.628,36.065c-0.48-1.066-0.985-1.088-1.441-1.106c-0.374-0.016-0.801-0.016-1.228-0.016
			s-1.121,0.161-1.708,0.802s-2.242,2.19-2.242,5.342s2.295,6.195,2.615,6.624c0.321,0.428,4.431,7.1,10.941,9.668
			c5.409,2.133,6.51,1.709,7.685,1.602c1.175-0.106,3.789-1.549,4.323-3.044c0.533-1.496,0.533-2.777,0.373-3.045
			s-0.587-0.428-1.228-0.747c-0.64-0.32-3.789-1.871-4.376-2.084c-0.588-0.214-1.014-0.32-1.441,0.321
			c-0.427,0.64-1.653,2.082-2.027,2.51c-0.373,0.428-0.747,0.481-1.388,0.16c-0.641-0.32-2.703-0.996-5.15-3.178
			c-1.903-1.698-3.188-3.794-3.563-4.436c-0.373-0.64-0.006-0.958,0.282-1.307c0.519-0.631,1.387-1.764,1.601-2.19
			c0.213-0.428,0.106-0.801-0.053-1.122C44.441,40.5,43.197,37.333,42.628,36.065z"/>
	</g>
</g>
</svg>
